<?xml version="1.0" standalone="no"?><!DOCTYPE svg PUBLIC "-//W3C//DTD SVG 1.1//EN" "http://www.w3.org/Graphics/SVG/1.1/DTD/svg11.dtd"><svg t="1582530225344" class="icon" viewBox="0 0 1024 1024" version="1.1" xmlns="http://www.w3.org/2000/svg" p-id="12346" xmlns:xlink="http://www.w3.org/1999/xlink" width="200" height="200"><defs><style type="text/css"></style></defs><path d="M0 0h1024v1024H0z" fill="#FFFFFF" p-id="12347"></path><path d="M266.24 512c0-28.672 6.144-55.296 12.288-81.92l-145.408-110.592c-26.624 57.344-45.056 122.88-45.056 190.464s16.384 133.12 45.056 190.464l145.408-112.64c-8.192-22.528-12.288-47.104-12.288-75.776z" fill="#FBBC05" p-id="12348"></path><path d="M520.192 256c61.44 0 114.688 22.528 157.696 57.344l126.976-126.976c-77.824-67.584-174.08-108.544-284.672-108.544-167.936 2.048-315.392 98.304-387.072 243.712l145.408 112.64c32.768-104.448 131.072-178.176 241.664-178.176z" fill="#EA4335" p-id="12349"></path><path d="M520.192 768c-112.64 0-208.896-73.728-243.712-174.08l-143.36 110.592c69.632 143.36 217.088 241.664 387.072 241.664 106.496 0 204.8-36.864 280.576-108.544l-139.264-106.496c-34.816 22.528-83.968 36.864-141.312 36.864zM280.576 591.872l-145.408 112.64 145.408-112.64z" fill="#34A853" p-id="12350"></path><path d="M520.192 432.128v167.936h231.424c-10.24 57.344-43.008 100.352-88.064 129.024l139.264 106.496c79.872-73.728 131.072-184.32 131.072-323.584 0-24.576-4.096-53.248-8.192-79.872H520.192z" fill="#4285F4" p-id="12351"></path></svg>