<?xml version="1.0" standalone="no"?><!DOCTYPE svg PUBLIC "-//W3C//DTD SVG 1.1//EN" "http://www.w3.org/Graphics/SVG/1.1/DTD/svg11.dtd"><svg t="1582261265883" class="icon" viewBox="0 0 1024 1024" version="1.1" xmlns="http://www.w3.org/2000/svg" p-id="9587" xmlns:xlink="http://www.w3.org/1999/xlink" width="200" height="200"><defs><style type="text/css"></style></defs><path d="M985.742 749.896c0 130.902-106.178 237.004-237.17 237.004H274.298c-130.954 0-237.092-106.102-237.092-237.004V276.018c0-130.902 106.138-236.966 237.092-236.966h474.274c130.992 0 237.17 106.064 237.17 236.966v473.878z" fill="#EB1A22" p-id="9588"></path><path d="M376.122 805.432c0.542 4.048 5.944 5.016 8.376 1.966 3.474-4.358 48.284-57.89 63.528-111.348 4.322-15.158 24.742-93.528 24.742-93.528 12.234 22.562 47.976 42.386 85.992 42.386 113.124 0 189.854-99.702 189.854-233.222 0-100.934-88.422-194.924-222.814-194.924-167.15 0-251.46 115.936-251.46 212.55 0 58.508 22.924 110.574 72.038 130.05 8.086 3.162 15.304 0.116 17.62-8.524 1.64-6.018 5.462-21.058 7.218-27.346 2.316-8.524 1.428-11.49-5.054-18.974-14.204-16.122-23.254-37.102-23.254-66.722 0-86.008 66.566-162.952 173.244-162.952 94.482 0 146.436 55.808 146.436 130.362 0 98.156-44.926 180.96-111.542 180.96-36.822 0-64.418-29.428-55.582-65.528 10.614-43.12 31.108-89.63 31.108-120.756 0-27.848-15.476-51.066-47.472-51.066-37.632 0-67.89 37.606-67.89 88.052 0 32.126 11.27 53.88 11.27 53.88s-38.518 157.744-45.274 185.396c-13.444 55.044-2.048 122.498-1.084 129.288z" fill="#FFFFFF" p-id="9589"></path><path d="M376.122 805.432c0.542 4.048 5.944 5.016 8.376 1.966 3.474-4.358 48.284-57.89 63.528-111.348 4.322-15.158 24.742-93.528 24.742-93.528 12.234 22.562 47.976 42.386 85.992 42.386 113.124 0 189.854-99.702 189.854-233.222 0-100.934-88.422-194.924-222.814-194.924-167.15 0-251.46 115.936-251.46 212.55 0 58.508 22.924 110.574 72.038 130.05 8.086 3.162 15.304 0.116 17.62-8.524 1.64-6.018 5.462-21.058 7.218-27.346 2.316-8.524 1.428-11.49-5.054-18.974-14.204-16.122-23.254-37.102-23.254-66.722 0-86.008 66.566-162.952 173.244-162.952 94.482 0 146.436 55.808 146.436 130.362 0 98.156-44.926 180.96-111.542 180.96-36.822 0-64.418-29.428-55.582-65.528 10.614-43.12 31.108-89.63 31.108-120.756 0-27.848-15.476-51.066-47.472-51.066-37.632 0-67.89 37.606-67.89 88.052 0 32.126 11.27 53.88 11.27 53.88s-38.518 157.744-45.274 185.396c-13.444 55.044-2.048 122.498-1.084 129.288z" fill="#FFFFFF" p-id="9590"></path><path d="M525.796 216.764c134.392 0 222.814 93.99 222.814 194.924 0 133.522-76.73 233.222-189.854 233.222-38.016 0-73.756-19.824-85.992-42.386 0 0-20.418 78.37-24.742 93.528-15.244 53.458-60.054 106.99-63.528 111.348-0.968 1.212-2.406 1.792-3.822 1.792-2.14 0-4.228-1.32-4.554-3.758-0.964-6.79-12.36-74.244 1.082-129.282l45.274-185.396s-11.27-21.754-11.27-53.88c0-50.448 30.258-88.052 67.89-88.052 31.996 0 47.472 23.218 47.472 51.066 0 31.126-20.494 77.636-31.108 120.756-8.838 36.1 18.758 65.528 55.582 65.528 66.616 0 111.542-82.804 111.542-180.96 0-74.552-51.954-130.362-146.436-130.362-106.678 0-173.244 76.944-173.244 162.952 0 29.622 9.05 50.602 23.254 66.722 6.484 7.484 7.37 10.452 5.054 18.974-1.756 6.288-5.578 21.328-7.218 27.346-1.718 6.41-6.136 9.742-11.604 9.742-1.9 0-3.928-0.402-6.014-1.218-49.114-19.476-72.038-71.542-72.038-130.05 0-96.62 84.312-212.556 251.46-212.556m0-19.754c-103.206 0-166.936 41.154-202.226 75.678-43.844 42.892-68.99 99.98-68.99 156.626 0 33.2 6.86 63.904 19.84 88.794 14.61 28.02 36.972 48.634 64.67 59.62 4.458 1.742 8.902 2.61 13.296 2.61 14.67 0 26.714-9.57 30.686-24.382 0.73-2.68 1.888-7.128 3.114-11.838 1.46-5.606 3.114-11.96 4.048-15.308l0.038-0.134c4.58-16.86 0.1-26.366-9.188-37.086l-0.11-0.126c-12.5-14.186-18.322-31.238-18.322-53.664 0-71.16 52.722-143.198 153.49-143.198 78.14 0 126.682 42.382 126.682 110.608 0 45.12-9.954 86.746-28.026 117.21-11.906 20.07-32.632 43.996-63.762 43.996-12.908 0-24.256-5.028-31.132-13.792-5.954-7.586-7.774-17.022-5.262-27.286 3.664-14.884 8.692-30.606 13.554-45.81 9.318-29.142 18.122-56.67 18.122-79.642 0-19.212-5.678-36.07-16.42-48.748-8.534-10.07-24.274-22.074-50.806-22.074-24.558 0-47.154 11.614-63.626 32.704-15.488 19.83-24.018 46.502-24.018 75.104 0 25.726 6.214 45.548 10.246 55.698-7.326 30-37.752 154.61-43.684 178.892-11.9 48.73-6.14 105.758-1.648 135.414l0.194 1.298c1.672 12.042 11.794 20.768 24.116 20.768 7.566 0 14.588-3.364 19.264-9.226l0.614-0.76c15.276-18.81 52.332-67.918 66.468-117.488 2.464-8.642 9.892-36.792 15.996-60.066 20.698 14.332 48.248 23.262 75.74 23.262 60.33 0 114.584-26.262 152.768-73.948 36.654-45.776 56.84-109.356 56.84-179.03 0-27.902-5.944-55.21-17.666-81.168-11.624-25.734-28.33-48.822-49.658-68.622-45.074-41.842-107.31-64.886-175.242-64.886z" fill="#B0141A" p-id="9591"></path><path d="M728.078 956.122H294.83c-124.896 0-226.506-101.636-226.506-226.566V296.358c0-124.908 101.61-226.526 226.506-226.526h433.248c124.918 0 226.544 101.62 226.544 226.526v433.198c0.002 124.928-101.626 226.566-226.544 226.566zM294.83 89.636c-113.976 0-206.702 92.734-206.702 206.72v433.198c0 114.008 92.726 206.762 206.702 206.762h433.248c113.996 0 206.74-92.754 206.74-206.762V296.358c0-113.986-92.744-206.72-206.74-206.72H294.83z" fill="#B0141A" p-id="9592"></path></svg>