<?xml version="1.0" standalone="no"?><!DOCTYPE svg PUBLIC "-//W3C//DTD SVG 1.1//EN" "http://www.w3.org/Graphics/SVG/1.1/DTD/svg11.dtd"><svg t="1582261612516" class="icon" viewBox="0 0 1024 1024" version="1.1" xmlns="http://www.w3.org/2000/svg" p-id="16454" xmlns:xlink="http://www.w3.org/1999/xlink" width="200" height="200"><defs><style type="text/css"></style></defs><path d="M70.1305681 125.36410956h883.73665401v828.50311255H70.1305681z" fill="#1296db" p-id="16455"></path><path d="M513.15879947 1174.80138528c-268.49024215 0.6628023-510.52361859-161.06100563-613.25800366-408.94913593S-146.55061223 232.90381291 43.06613284 43.3423006 518.40598638-203.22022509 765.74178252-99.82303645A663.07865856 663.07865856 0 0 1 1174.80138528 513.26926628C1174.80138528 878.5286728 879.13624102 1174.13858298 513.15879947 1174.80138528z m145.81654753-956.47922685l-20.54687649 2.65121048c-12.59324759 2.65121049-25.18649519 6.6280243-37.11693919 11.2676417a164.81688577 164.81688577 0 0 0-94.11795386 112.01362116c-6.6280243 25.84929748-6.6280243 53.02419957 0 78.21069346-25.18649519 0-50.37298908-3.3140128-74.23387967-9.9420371a487.71216617 487.71216617 0 0 1-202.87279497-98.75757126 305.71764816 305.71764816 0 0 1-49.10261726-48.38458086 135.26694222 135.26694222 0 0 1-15.24445808-17.89566731 185.41899633 185.41899633 0 0 0-17.89566729 43.08216118 172.66004911 172.66004911 0 0 0 37.11693919 151.78177086c8.61643249 10.60483939 21.87248238 17.23286498 30.48891487 26.51209977a43.80019754 43.80019754 0 0 1-22.53528468-1.98840818 163.15987937 163.15987937 0 0 1-35.12853229-9.94203711l-17.8956673-6.6280256a159.9563347 159.9563347 0 0 0 78.21069478 143.16533835c15.90726039 11.93044529 34.46572998 19.22127188 54.34980418 21.87248238-10.60483939 9.27923479-57.66381697 5.30241969-74.23387968 3.3140128 16.57006269 50.37298908 55.67540878 89.47833646 105.44082962 106.71120016 15.90726039 5.96522201 32.47732177 8.61643249 49.04738448 8.61643251a218.17248585 218.17248585 0 0 1-45.07056938 29.16331027 358.79708181 358.79708181 0 0 1-99.42037355 36.4541369c-15.24445679 3.3140128-31.15171718 2.65121049-48.38458219 5.30241968a236.9518904 236.9518904 0 0 1-53.02419826-1.9884082l14.58165447 8.61643251c15.24445679 9.27923479 30.48891487 17.23286498 47.0589763 23.86089059 31.81451949 13.25604989 64.29184127 23.86088929 97.43196665 31.81451948 78.21069347 16.57006269 159.7906338 13.91885221 236.67572266-7.9536302 173.70948601-54.34980419 283.73469895-181.60788213 325.54648959-369.18098755 6.6280243-35.12853229 9.27923479-71.58266917 7.95363021-107.37400374l26.51209979-21.87248111a278.10087874 278.10087874 0 0 0 56.33821107-64.95464485 330.8489093 330.8489093 0 0 1-94.11795387 25.84929747c6.6280243-3.3140128 12.59324759-7.95363018 18.5584696-13.25604988 25.18649519-20.5468778 43.74496478-47.72177987 53.68700189-78.21069348l-20.54687651 11.2676417a269.20827852 269.20827852 0 0 1-86.16432364 28.50050799 167.35762943 167.35762943 0 0 0-130.62732482-52.36139728v0.66280231h-0.71803637z" fill="#ffffff" p-id="16456"></path></svg>