<?xml version="1.0" standalone="no"?><!DOCTYPE svg PUBLIC "-//W3C//DTD SVG 1.1//EN" "http://www.w3.org/Graphics/SVG/1.1/DTD/svg11.dtd"><svg t="1582510007922" class="icon" viewBox="0 0 1024 1024" version="1.1" xmlns="http://www.w3.org/2000/svg" p-id="1589" xmlns:xlink="http://www.w3.org/1999/xlink" width="200" height="200"><defs><style type="text/css"></style></defs><path d="M767.184 113.168c0.224 0 0.4 0.368 0.64 0.512 8.208 4.944 18.96 11.152 16.8 21.152-6.608 30.688-22.32 110.672-20.8 120.48 3.248 21.52 27.456 200.144 72.608 535.856L816 931.936V976H208v-44.064l-32.864-138.8c57.76-346.352 87.904-527.264 90.448-542.768 1.456-8.976-12.96-85.76-18.576-115.52-0.752-3.936 0.848-5.856 3.28-8.544 4.608-5.056 8.864-5.456 15.296-2.992 24 9.184 224.56 75.808 243.264 82.864 3.136 1.168 5.408 1.856 9.008 0.48 23.792-9.056 231.648-88.8 245.952-93.968 0.96-0.352 2.24 0.256 3.36 0.48zM943.472 822.56c-1.968 14.976-3.968 29.856-5.856 44.752-0.288 2.272-1.488 2.624-2.912 2.656l-82.784-0.016c3.456-16.16 6.896-31.584 10.24-47.392h81.312z m-778.56-0.096c3.456 15.728 6.768 31.264 10.224 47.152h-85.44l-6.208-47.152h81.44z m66.704-648.976c1.616 8.32 5.168 31.28 6.512 38.64 2.224 12.272 4.912 24.512 6.304 36.896 0.592 7.248 0.256 14.56-1.024 21.712-3.696 24.592-7.872 49.104-11.792 73.632-4.144 25.968-8.24 51.92-12.288 77.872-4.512 28.496-8.944 57.008-13.488 85.52-4.832 30.224-9.808 60.48-14.64 90.608a74301.76 74301.76 0 0 0-32.064 203.824c-0.416 2.608-0.544 4.832-4.4 4.816-34.656-0.144-69.296-0.096-103.952-0.112-0.848 0-1.696-0.128-3.424-0.32 0-10.352-9.216-92.352-9.216-102.384 0-18.56 138.176-412.944 149.424-445.008 8.816-24.992 34.72-59.632 44.048-85.696z m564.848 16.752c2.112 5.712 4.096 10.784 5.888 15.92a93712.56 93712.56 0 0 0 96.672 278.496c10.72 30.752 21.44 61.52 32.112 92.288l31.728 91.072 15.52 44.256c0.912 2.72 1.392 5.552 1.44 8.432 0.096 26.752 0 53.552 0.128 80.256 0 4.048-0.944 5.44-5.184 5.424-34.208-0.16-68.416 0-102.64 0l-3.2-0.16c-2.992-19.36-5.888-38.24-8.832-57.024l-12.848-82.608c-4.656-30.24-9.232-60.464-13.92-90.72l-11.648-74.464c-6.208-40.032-12.384-80.064-18.528-120.112l-10.352-68.56c-2.64-17.28-5.472-34.56-7.904-51.952a40.576 40.576 0 0 1 0.432-12.32c3.28-18.816 6.896-37.568 10.352-56.352 0.224-0.64 0.48-1.264 0.784-1.872zM339.2 54.816l147.04 119.616-0.432 0.88-200.352-72.96 53.744-47.536z m349.136 2.24c16.24 14.304 32.704 28.384 49.104 42.56l2.512 2.176-199.008 72.544-0.432-0.832c2.4-1.92 4.816-3.808 7.2-5.76 79.264-65.232 124.144-102.16 134.608-110.816 2.288-1.92 3.568-2.048 6.016 0.112z m-53.2 12.592l-7.776 29.152-105.6 74.704-104.96-88.192 0.224-1.04c2.304 0.592-18.8-15.168-16.48-14.624 56.224 13.136 178.64 14.528 234.592 0z" fill="#FFFFFF" p-id="1590"></path><path d="M682.512 16c1.84 1.52 44.48 39.552 127.888 114.096 127.84 366.816 193.12 554.208 195.84 562.192 1.056 3.04 1.616 6.224 1.68 9.44 0.112 34.112 0.112 68.224 0 102.352 0 11.136-5.648 16.928-16.8 17.2a269.44 269.44 0 0 1-14.784 0c-2.624 0-3.568 0.736-3.936 3.504-2.48 19.84-5.072 39.648-7.872 59.456-1.44 10.528-6.768 14.88-17.264 14.88-19.568 0-53.504 0.048-101.84 0.128a13698.72 13698.72 0 0 0-20.544 95.76 15.68 15.68 0 0 1-15.968 12.992c-384.64-0.064-582.448-0.064-593.424 0-8.608 0-14.56-4.672-16.336-12.992-6.64-30.96-12.72-64.384-19.296-95.36-0.528-2.528-1.696-2.848-3.712-2.848l-102.288-0.384c-7.408 0.224-13.6-2.4-14.464-9.776-2.272-15.76-8.16-62.72-8.448-64.8h-18.88c-9.952-0.208-15.84-6.144-16-16.288-0.144-8.48-0.08-76.768 0.08-102.432 0.048-3.792 0.704-7.536 1.952-11.12 6.544-18.656 73.12-207.088 199.696-565.248l123.488-110.672c57.44 31.552 116.432 47.408 177.008 47.552C609.168 63.84 678.56 19.2 682.512 16zM620.32 182v190.56c16.848 33.088 26.368 57.392 28.56 72.912 1.696 11.36-5.072 19.296-16.608 19.312h-53.696c-12.608 0-19.008-7.84-17.152-20.32 1.92-12.8 11.28-36.8 28.016-72V189.2c-0.272-0.032-24 8.512-71.168 25.6a8897.968 8897.968 0 0 1-83.52-26.016v90.672c18.528 45.888 27.888 70.4 28.064 73.552 0.432 8.48-6.048 14.784-14.496 14.848-19.328 0.16-38.64 0.16-57.936 0a15.12 15.12 0 0 1-15.232-17.744l28.576-71.456v-101.008l-140.16-51.344-11.84 12 19.04 99.536c1.2 6.208 2.128 12.448 1.088 18.88-2.544 15.568-30.448 194.592-83.712 537.12l7.232 35.12 12.608 52.24h416.096V928H215.488l8.416 48h577.568l8.928-48h-74.64v-46.656H816l20.432-90.176-80.688-527.264c-1.152-7.376-1.968-14.784-0.528-22.4 2.96-15.488 10.32-48.736 22.112-99.728l-15.12-15.44c-94.576 34.208-141.872 52.752-141.872 55.664z m35.792 699.2l48.24 0.16V928h-48.24v-46.8z m205.696-58.976l-10.064 46.448h83.52l6.352-46.448h-79.808z m-779.616-0.096l6.08 46.224h83.84l-10.032-46.24H82.208z m147.376-636.336A424554.944 424554.944 0 0 0 48.352 698.656c-0.848 2.544-1.28 5.184-1.312 7.856v87.312h110.368l81.712-528.128c1.264-7.04 1.6-14.176 1.024-21.28-0.688-6.08-8.96-50.464-10.56-58.624z m567.6 0.832c-0.288 0.592-7.68 38.608-10.912 57.056a39.728 39.728 0 0 0-0.432 12.08c2.4 16.944 79.68 515.808 82.608 534.752l109.44 0.656-1.552-88.048c-0.032-2.816-177.072-510.896-179.152-516.496zM606.624 620.8h29.312l-0.352 6.768c-1.456 20.608 4.64 39.136 15.392 56.432 14.56 23.408 34.912 38.56 62.368 43.424 4.16 0.704 8.352 1.184 12.576 1.44 2.208 0.144 3.376 0.704 3.376 3.136v28.432l-12.64-1.024c-4.16-0.336-8.24-0.736-12.288-1.328-29.12-4.272-51.664-19.264-69.216-42.56-13.536-17.936-23.84-37.264-27.008-59.664-1.52-10.816-1.36-21.888-1.936-32.848a9.216 9.216 0 0 1 0.416-2.208z m-33.12 0.32v30.304h-154.24c-8.32 28.432-18.16 49.104-29.472 62-24.32 27.712-55.712 45.12-91.552 46.448a16.16 16.16 0 0 1-2.72-0.448V730.08c9.216-1.696 18.32-2.72 27.104-5.072 16.624-4.336 29.968-14.16 40.64-27.392 10.4-12.8 18.416-27.376 23.68-43.008 2.16-6.448 2.608-17.632 1.328-33.536l185.248 0.08zM342.016 56.32l-52.752 46.592 196.592 71.52 0.4-0.864-144.24-117.232z m198.528 117.184l195.232-71.12-50.624-43.84-144.608 114.96z m94.624-103.856c-45.504 16.896-84.448 25.36-116.864 25.36-32.4 0-71.648-8.464-117.728-25.36l117.296 92.208 117.296-92.208z" fill="#244327" p-id="1591"></path></svg>