<?xml version="1.0" standalone="no"?><!DOCTYPE svg PUBLIC "-//W3C//DTD SVG 1.1//EN" "http://www.w3.org/Graphics/SVG/1.1/DTD/svg11.dtd"><svg t="1582510094660" class="icon" viewBox="0 0 1024 1024" version="1.1" xmlns="http://www.w3.org/2000/svg" p-id="8124" xmlns:xlink="http://www.w3.org/1999/xlink" width="200" height="200"><defs><style type="text/css"></style></defs><path d="M998.7 861.8l18.9-447.7c0.2-4.1-2.5-7.8-6.4-9l-80.9-24.8-5.7-40.3c-0.6-4.5-4.5-7.8-9-7.8H707.3l-46.5-190.1c-0.3-1.2-0.8-2.3-1.5-3.2l-74.4-101c-1.7-2.3-4.4-3.7-7.3-3.7H445.8c-2.9 0-5.6 1.4-7.3 3.7l-74.4 101c-0.7 1-1.2 2.1-1.5 3.2l-46.5 190.1H107.8c-4.5 0-8.3 3.3-9 7.8l-5.7 40.3L12.2 405c-3.9 1.2-6.6 4.9-6.4 9l18.9 447.6-8.7 61c-0.3 2.3 0.3 4.7 1.6 6.6L59 986.5c1.7 2.4 4.4 3.8 7.3 3.8H957c2.9 0 5.6-1.4 7.3-3.8l41.4-57.3c1.4-1.9 2-4.3 1.6-6.6l-8.6-60.8z m0.5-441.5l-14.5 343L933.1 400l66.1 20.3zM332 343.6l0.1-0.5 47.7-194.9 70.6-95.9H573l70.6 95.9L691.3 343l0.1 0.6 8.6 35 4.7 19.2h-22l-15.1-58.7-0.1-0.3v-0.1l-47.2-183.3c-0.3-1.2-0.8-2.2-1.5-3.2l-60.9-80.8c-1.7-2.3-4.4-3.6-7.2-3.6H473c-2.8 0-5.5 1.3-7.2 3.6L405 152.2c-0.7 1-1.2 2-1.5 3.2L356 338.5l-0.1 0.3-0.2 0.6-15.1 58.4h-22l13.4-54.2zM733.3 416l-11.9 135.7h-55.8l-18-135.7h85.7zM647 332.2H376.4l43.9-170.5 57.1-75.8H546l57 75.8 44 170.5zM369.4 416l-11.9 135.7H302L290 416h79.4z m-345.2 4.3L90.3 400 38.7 763.3l-14.5-343z m928.1 551.8H71l-36.5-50.5 8.3-58 0.1-0.5 67.4-474.4 5.5-38.3h196l-11.6 47.5h-19.9c-2.5 0-5 1.1-6.7 2.9-1.7 1.9-2.6 4.4-2.3 6.9l13.5 153.8c0.4 4.7 4.3 8.3 9 8.3h72.1c4.7 0 8.6-3.6 9-8.3l13.5-153.8c0.2-2.5-0.6-5-2.4-6.9-1.7-1.9-4.1-2.9-6.7-2.9h-19.8l12.3-47.5h280l12.3 47.5h-26.6c-2.6 0-5.1 1.1-6.8 3.1-1.7 2-2.5 4.6-2.2 7.2L648.8 562c0.6 4.5 4.4 7.9 9 7.9h72.1c4.7 0 8.6-3.6 9-8.3l13.5-153.8c0.2-2.5-0.6-5-2.3-6.9-1.7-1.9-4.1-2.9-6.7-2.9h-19.9l-2.2-8.9 49.8 12.9 40.8 110.3 16.6 122.3H802c-4.1 0-7.7 2.8-8.8 6.7l-29.5 109.5c-0.9 3.2 0.1 6.6 2.5 8.9l29.5 27.9c1.7 1.6 3.9 2.5 6.2 2.5h73.7c2.3 0 4.5-0.9 6.2-2.5l29.5-27.9c2.4-2.3 3.4-5.7 2.5-8.9l-29.5-109.5c-1.1-4-4.7-6.7-8.8-6.7h-29l-17.1-125.7c-0.1-0.7-0.2-1.3-0.5-1.9l-42.7-115.7c-1-2.8-3.4-4.9-6.2-5.6L716.3 369l-4.6-18.7h196L980.6 863c0 0.2 0 0.3 0.1 0.5l8.3 58-36.7 50.6z m-83.7-319.6l26.3 97.6-22.9 21.8h-66.5l-22.9-21.7 26.3-97.6h59.7z" fill="#222222" p-id="8125"></path></svg>