<?xml version="1.0" standalone="no"?><!DOCTYPE svg PUBLIC "-//W3C//DTD SVG 1.1//EN" "http://www.w3.org/Graphics/SVG/1.1/DTD/svg11.dtd"><svg t="1582261566728" class="icon" viewBox="0 0 1024 1024" version="1.1" xmlns="http://www.w3.org/2000/svg" p-id="15473" xmlns:xlink="http://www.w3.org/1999/xlink" width="200" height="200"><defs><style type="text/css"></style></defs><path d="M443.733333 773.688889s0 5.688889 0 0c-5.688889 11.377778-11.377778 17.066667-17.066666 17.066667-5.688889 0-11.377778 0-11.377778-5.688889v-11.377778-164.977778h-39.822222v182.044445c0 5.688889 0 17.066667 5.688889 22.755555 5.688889 5.688889 11.377778 11.377778 17.066666 11.377778h17.066667c11.377778-5.688889 22.755556-11.377778 28.444444-22.755556l5.688889-5.688889v22.755556h39.822222v-216.177778h-39.822222v170.666667zM631.466667 631.466667c-5.688889-17.066667-22.755556-22.755556-39.822223-17.066667-11.377778 0-17.066667 5.688889-22.755555 17.066667l-5.688889 5.688889V534.755556h-39.822222v290.133333h39.822222v-17.066667s0 5.688889 5.688889 5.688889c11.377778 11.377778 17.066667 17.066667 34.133333 17.066667s28.444444-5.688889 34.133334-22.755556c0-5.688889 5.688889-17.066667 5.688888-22.755555v-119.466667c-5.688889-11.377778-5.688889-22.755556-11.377777-34.133333z m-34.133334 147.911111v5.688889c0 5.688889-5.688889 5.688889-5.688889 11.377777h-11.377777c-5.688889 0-11.377778-5.688889-11.377778-5.688888v-136.533334-5.688889c5.688889-5.688889 11.377778-5.688889 17.066667-5.688889 5.688889 0 11.377778 5.688889 11.377777 5.688889V779.377778zM489.244444 375.466667c11.377778 0 17.066667-5.688889 17.066667-17.066667v-113.777778c0-11.377778-5.688889-17.066667-17.066667-17.066666-5.688889 0-17.066667 5.688889-17.066666 17.066666v119.466667c0 5.688889 11.377778 11.377778 17.066666 11.377778zM375.466667 534.755556H238.933333v45.511111H284.444444v250.311111h45.511112v-250.311111h45.511111zM785.066667 728.177778v-56.888889-22.755556c-5.688889-17.066667-11.377778-34.133333-34.133334-39.822222-5.688889 0-11.377778 0-17.066666-5.688889-17.066667 0-34.133333 5.688889-51.2 17.066667-11.377778 11.377778-17.066667 28.444444-17.066667 45.511111v96.711111c0 5.688889 0 17.066667 5.688889 22.755556 5.688889 17.066667 11.377778 28.444444 28.444444 39.822222 11.377778 5.688889 22.755556 5.688889 39.822223 5.688889 22.755556-5.688889 34.133333-11.377778 39.822222-34.133334 5.688889-17.066667 5.688889-45.511111 5.688889-45.511111h-39.822223v28.444445c0 11.377778-5.688889 17.066667-17.066666 17.066666-11.377778 0-17.066667-5.688889-17.066667-17.066666v-51.2h73.955556z m-79.644445-68.266667c0-11.377778 5.688889-17.066667 17.066667-17.066667 11.377778 0 17.066667 5.688889 17.066667 17.066667v28.444445h-34.133334v-28.444445z" fill="#d81e06" p-id="15474"></path><path d="M910.222222 0H113.777778C51.2 0 0 51.2 0 113.777778v796.444444c0 62.577778 51.2 113.777778 113.777778 113.777778h796.444444c62.577778 0 113.777778-51.2 113.777778-113.777778V113.777778c0-62.577778-51.2-113.777778-113.777778-113.777778z m-329.955555 193.422222h39.822222v170.666667c0 5.688889 5.688889 11.377778 11.377778 5.688889 5.688889 0 11.377778-5.688889 17.066666-17.066667V193.422222h39.822223v216.177778h-39.822223v-22.755556l-11.377777 11.377778c-5.688889 5.688889-17.066667 11.377778-22.755556 11.377778-17.066667 5.688889-28.444444 0-34.133333-17.066667V193.422222z m-91.022223-5.688889c34.133333 0 56.888889 28.444444 56.888889 56.888889v113.777778c0 34.133333-28.444444 56.888889-56.888889 56.888889-34.133333 0-56.888889-28.444444-56.888888-56.888889v-113.777778c0-28.444444 28.444444-56.888889 56.888888-56.888889zM335.644444 119.466667s17.066667 79.644444 28.444445 113.777777c11.377778-34.133333 28.444444-113.777778 28.444444-113.777777h45.511111l-51.2 170.666666v125.155556H341.333333V295.822222 284.444444c-17.066667-51.2-51.2-170.666667-51.2-170.666666h45.511111z m500.622223 688.355555c0 51.2-39.822222 96.711111-96.711111 96.711111-153.6 5.688889-301.511111 5.688889-455.111112 0-51.2 0-96.711111-45.511111-96.711111-96.711111V568.888889C187.733333 512 227.555556 472.177778 284.444444 472.177778c153.6-5.688889 307.2-5.688889 460.8 0 51.2 0 96.711111 45.511111 96.711112 96.711111v238.933333z" fill="#d81e06" p-id="15475"></path></svg>