<?xml version="1.0" standalone="no"?><!DOCTYPE svg PUBLIC "-//W3C//DTD SVG 1.1//EN" "http://www.w3.org/Graphics/SVG/1.1/DTD/svg11.dtd"><svg t="1582351976969" class="icon" viewBox="0 0 1024 1024" version="1.1" xmlns="http://www.w3.org/2000/svg" p-id="8088" xmlns:xlink="http://www.w3.org/1999/xlink" width="200" height="200"><defs><style type="text/css"></style></defs><path d="M882.4 772.1H471.5c-9 0-16.1-5.6-18.5-14.2-0.6-2.5-1.8-4.3-2.4-6.8-7.2-21.1-12.6-37.2-17.9-52-2.4-9.3 0-14.9 2.4-18 2.4-3.1 7.2-7.4 15.5-7.4h4.8c1.8 0 3 0 4.8-0.6l48.6-3.7c7.2-0.6 14.3-1.2 20.9-1.2 6.6-0.6 13.8-0.6 20.9-1.2l58.6-3.7c7.2-0.6 14.3-0.6 20.9-1.2 6.6-0.6 13.8-0.6 20.9-1.2l58.6-3.7c7.2-0.6 14.3-1.2 20.9-1.2 6.6-0.6 13.8-0.6 20.9-1.2 12-0.6 23.3-1.9 35.3-2.5 12-0.6 23.3-1.9 35.3-2.5 12.6-0.6 35.1-9.1 39.9-20.2 10.2-21.7 74.2-249.3 96.9-300.7-14.9 6.8-44.1 15.3-60.2 19-7.8 1.9-19.2 3.9-27 5.2-13.8 31.6-60.4 211.4-64 219.5-4.2 10.5-12.6 11.8-16.7 12.4-2.4 0-4.8 0.6-7.8 0.6s-5.4 0.6-8.4 0.6c-13.8 0.6-27.5 1.9-41.3 2.5-11.4 0.6-22.1 1.2-33.5 2.5-11.4 0.6-22.7 1.9-34.1 2.5-8.4 0.6-17.3 1.2-25.7 1.9l-25.1 1.9c-13.2 0.6-25.7 1.9-38.9 2.5-12.6 0.6-25.7 1.9-38.3 2.5-17.9 1.2-35.3 2.5-54.4 3.7l-63.6 4.8c-10.8 0-17.9-5-20.3-13.6-3-8.7-6.6-18-9.6-27.3-3-8.7-6-18-9.6-26.6-16.7-47.7-34.1-89.2-54.4-147.4-2.4-6.2-4.8-13-7.2-19.8-2.4-9.3-1.8-15.9 0-19 3.6-4.3 10.8-5.8 16.7-5.8h89.4c-3-9.3-12-18.1-13.8-28.6-1.8-9.3-0.6-33.3-1.2-42H298.9c-9.6 0-11.4-3-15.5-11.4-4.2-8.3-22.5-51-26.7-62.1-3.6-9.9-20-16.3-30.7-16.3H89.7c-11.4 0-25.9 11.6-25.9 33.7s14 35.6 25.9 35.6h100.4c9 0 16.7 5.6 19.1 14.9 0 0.6 22.1 50.8 32.3 78.1 6 16.1 11.4 32.2 17.3 48.9 6 16.1 11.4 32.8 17.3 48.9 4.8 14.2 10.2 28.5 14.9 43.4 5.4 14.2 10.2 29.1 15.5 43.4 6.6 18 12.6 36.5 19.1 54.5 6.6 18.6 13.2 36.5 19.1 55.1 4.8 14.2 10.2 27.9 14.9 42.1 6.6 18.6 13.2 37.8 19.7 56.4 1.2 3.1 3.6 10.5-1.8 18-5.4 7.4-13.2 7.4-16.7 7.4h-77.7c-3 0-6 0-9 0.6-16.7 2.5-31.1 9.9-42.4 22.3-12.6 13.6-19.1 29.1-20.3 47.7-0.6 14.9 2.4 27.9 10.2 40.3 9.6 15.5 22.1 26 38.9 32.2 5.4 1.9 10.8 3.1 16.1 3.7h10.8c1.2 0 2.4-0.6 3.6-0.6h7.8c17.3-3.1 31.1-11.2 43-25.4 10.2-11.8 15.5-25.4 16.7-42.1 1.2-20.4 17.3-20.4 22.7-20.4h407.1c8.4 0 17.9 5.6 19.1 18.6 0.6 13 4.2 24.2 10.2 34.1 9.6 15.5 22.1 26 38.9 32.2 4.2 1.2 9 2.5 14.9 3.1h3.6c1.2 0 2.4 0 4.2 0.6h4.2c1.2 0 2.4-0.6 3.6-0.6 3.6-0.6 6-0.6 7.2-0.6 39.5-7.4 65.2-44 59.8-83-5.8-35.4-36.3-62.1-71.6-62.1z" p-id="8089" fill="#8a8a8a"></path><path d="M644.5 106.5c7.6 0 14.5 3.3 20.9 9.9l139 163.2c3.7 3.9 5 7.4 4 10.4s-3.8 4.5-8.4 4.6H689.3v203.6C681.4 511.4 667 518 646 518s-35-6.6-42.1-19.8V294.5H492.5c-3.8 0-6.5-1.5-8.1-4.6-1.5-3-1.5-5.9 0-8.5l138.6-165c6.8-6.6 14-9.9 21.5-9.9z" p-id="8090" fill="#8a8a8a"></path></svg>