<?xml version="1.0" standalone="no"?><!DOCTYPE svg PUBLIC "-//W3C//DTD SVG 1.1//EN" "http://www.w3.org/Graphics/SVG/1.1/DTD/svg11.dtd"><svg t="1582352889893" class="icon" viewBox="0 0 1024 1024" version="1.1" xmlns="http://www.w3.org/2000/svg" p-id="13623" xmlns:xlink="http://www.w3.org/1999/xlink" width="200" height="200"><defs><style type="text/css"></style></defs><path d="M222.018 162.249l126.816-0.511c18.752 0.468 36.146-12.523 38.988-34.663v-23.91c-0.477-18.786-15.962-34.319-34.718-34.737l-242.147 1.433c-0.358-0.035-0.599-0.17-0.921-0.17l-16.985-0.377c-9.376-0.226-17.772 3.442-23.762 9.523-6.081 6.041-8.324 14.478-8.075 23.91l1.808 17.019c0 0.339-1.26 0.561-1.26 0.94l0.941 243.333c0.412 18.752 15.909 30.005 34.717 30.426h25.23c18.752 0.412 33.645-15.909 33.226-34.643l-1.056-132.333 166.961 164.283c18.151 18.183 47.516 18.183 65.67 0 18.096-18.19 18.096-47.58 0-65.782L222.017 162.235zM943.446 899.13l-0.975-239.587c-0.477-18.736-15.964-29.95-34.718-30.364l-23.853-0.037c-18.698-0.429-33.645 15.945-33.172 34.697l1.056 129.491-166.961-165.354c-18.151-18.19-47.479-18.19-65.633 0-18.126 18.183-18.126 47.574 0 65.764l166.94 165.227-126.646 0.511c-18.752-0.42-36.111 11.105-38.99 33.249v23.91c0.477 18.786 16.023 34.32 34.718 34.793l239.049-1.453c0.377 0 0.598 0.15 0.965 0.15l16.944 0.412c9.375 0.226 17.825-3.443 23.814-9.547 6.117-5.987 8.298-14.453 8.114-23.888l-1.861-16.985c-0.033-0.42 1.227-0.661 1.227-0.982zM387.393 627.968c-18.129-18.19-47.516-18.19-65.645 0L154.771 792.249l1.076-130.284c0.412-18.786-14.477-35.169-33.187-34.695H97.43c-18.805 0.468-34.298 11.634-34.717 30.426l-0.976 241.379c0 0.339 1.26 0.562 1.26 0.941l-1.808 16.985c-0.207 9.433 1.98 17.903 8.06 23.888 5.987 6.097 14.443 9.77 23.762 9.546l16.986-0.412c0.339 0 0.561-0.15 0.941-0.15l242.135 1.453c18.752-0.477 34.265-16.004 34.717-34.789v-23.91c-2.823-22.142-20.218-33.658-38.933-33.249l-128.27-0.412 166.827-165.227c18.102-18.126 18.102-47.58-0.002-65.764zM619.286 391.784c18.151 18.183 47.479 18.183 65.633 0L851.88 226.481l-1.076 133.347c-0.45 18.734 14.501 35.114 33.188 34.697h23.853c18.754-0.477 34.245-11.689 34.718-30.426l0.965-243.394c0-0.377-1.249-0.599-1.249-0.941l1.849-17.019c0.187-9.431-1.989-17.869-8.114-23.91-5.988-6.08-14.443-9.751-23.801-9.488l-16.944 0.377c-0.377 0-0.599 0.132-0.975 0.187l-242.512-1.453c-18.752 0.433-34.245 15.964-34.717 34.755l-0.054 23.91c2.88 22.177 20.299 35.114 38.988 34.697l128.682 0.51L619.34 326.086c-18.19 18.115-18.19 47.501-0.054 65.686z" p-id="13624"></path></svg>