<?xml version="1.0" standalone="no"?><!DOCTYPE svg PUBLIC "-//W3C//DTD SVG 1.1//EN" "http://www.w3.org/Graphics/SVG/1.1/DTD/svg11.dtd"><svg t="1582352011253" class="icon" viewBox="0 0 1024 1024" version="1.1" xmlns="http://www.w3.org/2000/svg" p-id="8965" xmlns:xlink="http://www.w3.org/1999/xlink" width="200" height="200"><defs><style type="text/css"></style></defs><path d="M321.217318 1021.06444c43.759905 14.586635 58.346539-29.17327 43.759905-43.759905-65.639857-43.759905-94.813127-123.986396-72.933174-189.626253 21.879952-80.226492 87.519809-109.399761 87.519809-226.09284 0 0 80.226492 58.346539 65.639856 145.866348 72.933174-94.813127 36.466587-211.506205 21.879953-269.852744 196.919571 109.399761 371.959189 335.492602 167.746301 532.412172-21.879952 21.879952 0 58.346539 36.466587 43.759904 539.70549-306.319332 131.279714-773.091647 65.639857-824.144869 21.879952 58.346539 29.17327 138.573031-21.879953 182.332936C634.829968 65.639857 437.910397 0 437.910397 0c21.879952 160.452983-87.519809 335.492602-196.91957 466.772315-7.293317-65.639857-7.293317-109.399761-36.466588-167.746301C197.230922 415.719093 102.417795 503.238902 80.537843 627.225299c-29.17327 153.159666 21.879952 269.852745 240.679475 393.839141z" fill="#8a8a8a" p-id="8966"></path></svg>