<?xml version="1.0" standalone="no"?><!DOCTYPE svg PUBLIC "-//W3C//DTD SVG 1.1//EN" "http://www.w3.org/Graphics/SVG/1.1/DTD/svg11.dtd">
<svg version="1.1" id="图层_1" xmlns="http://www.w3.org/2000/svg" xmlns:xlink="http://www.w3.org/1999/xlink" x="0px" y="0px"
     viewBox="0 0 40 40" style="enable-background:new 0 0 40 40;" xml:space="preserve">
<style type="text/css">
    .st0{fill:#949494;}
</style>
<g id="XMLID_2_">
    <g id="XMLID_3_">
        <path id="XMLID_4_" class="st0" d="M20,0.1c-11,0-20,8.9-20,20c0,11,8.9,20,20,20c11,0,20-8.9,20-20C40,9,31,0.1,20,0.1L20,0.1z
             M20,7.3c4.4,0,8,3.6,8,8c0,4.4-3.6,8-8,8c-4.4,0-8-3.6-8-8C12,10.9,15.6,7.3,20,7.3L20,7.3z M20,38.4c-5.7,0-10.8-2.6-14.2-6.7
            c3.4-3.7,8.5-6.1,14.2-6.1c5.7,0,10.8,2.4,14.2,6.1C30.8,35.8,25.7,38.4,20,38.4L20,38.4z M20,38.4"/>
    </g>
</g>
</svg>
