<?xml version="1.0" standalone="no"?><!DOCTYPE svg PUBLIC "-//W3C//DTD SVG 1.1//EN" "http://www.w3.org/Graphics/SVG/1.1/DTD/svg11.dtd"><svg t="1584153030190" class="icon" viewBox="0 0 1024 1024" version="1.1" xmlns="http://www.w3.org/2000/svg" p-id="2251" xmlns:xlink="http://www.w3.org/1999/xlink" width="200" height="200"><defs><style type="text/css"></style></defs><path d="M524.8 230.4c-99.84 0-179.2 79.36-179.2 179.2s79.36 179.2 179.2 179.2 179.2-79.36 179.2-179.2-79.36-179.2-179.2-179.2z m0 307.2c-71.68 0-128-56.32-128-128s56.32-128 128-128 128 56.32 128 128-56.32 128-128 128z m281.6 10.24c20.48-40.96 33.28-87.04 33.28-135.68C839.68 240.64 698.88 102.4 524.8 102.4S209.92 240.64 209.92 412.16c0 48.64 12.8 94.72 33.28 135.68l-128 217.6s81.92 15.36 163.84 33.28c53.76 61.44 110.08 122.88 110.08 122.88l117.76-199.68h40.96L665.6 921.6s53.76-61.44 110.08-122.88c81.92-17.92 163.84-33.28 163.84-33.28l-133.12-217.6z m-424.96 281.6s-38.4-38.4-76.8-74.24c-51.2-15.36-104.96-30.72-104.96-30.72l74.24-125.44c43.52 56.32 104.96 97.28 174.08 115.2l-66.56 115.2z m143.36-163.84c-140.8 0-256-115.2-256-256S384 153.6 524.8 153.6s256 115.2 256 256-115.2 256-256 256z m220.16 89.6c-35.84 35.84-76.8 74.24-76.8 74.24l-69.12-115.2c71.68-17.92 133.12-58.88 174.08-115.2l74.24 125.44c2.56 0-51.2 15.36-102.4 30.72z" p-id="2252" fill="#707070"></path></svg>