<?xml version="1.0" standalone="no"?><!DOCTYPE svg PUBLIC "-//W3C//DTD SVG 1.1//EN" "http://www.w3.org/Graphics/SVG/1.1/DTD/svg11.dtd"><svg t="1582355636685" class="icon" viewBox="0 0 1207 1024" version="1.1" xmlns="http://www.w3.org/2000/svg" p-id="15879" xmlns:xlink="http://www.w3.org/1999/xlink" width="235.7421875" height="200"><defs><style type="text/css"></style></defs><path d="M38.818698 1024a37.021245 37.021245 0 0 1-13.358181-2.671636 43.318673 43.318673 0 0 1-24.426388-48.852777c21.37309-111.254566 152.664927-661.039135 667.909057-714.47186V61.256802a60.493477 60.493477 0 0 1 34.731271-57.249348 46.753634 46.753634 0 0 1 52.6694 11.831532l432.9959 438.911666a69.271711 69.271711 0 0 1 0.954156 91.598957L784.968531 979.154678a47.135296 47.135296 0 0 1-52.478569 12.785687 60.493477 60.493477 0 0 1-35.494596-57.249347v-176.709654a17.747298 17.747298 0 0 0-1.526649-7.633246c-17.365635 1.908312-39.120388 2.289974-66.409243 2.671636-139.87924 2.099143-398.837123 5.915766-559.70779 253.232948a36.639583 36.639583 0 0 1-30.532986 17.747298z m-13.930674-46.753634zM699.094509 696.533731a48.661946 48.661946 0 0 1 31.487141 12.213194 65.073425 65.073425 0 0 1 20.609766 49.234439v175.946329a21.182259 21.182259 0 0 0 0 3.625792l400.745434-428.225121a16.602311 16.602311 0 0 0 0-17.556467L722.566742 57.63101a19.083116 19.083116 0 0 0 0 3.625792v246.172195l-24.808051 1.717481C268.197752 340.251957 115.151162 740.997391 69.351684 917.897876c175.564666-212.585911 422.309355-216.211703 559.898621-218.310847 26.3347 0 49.043608 0 63.928438-2.671636z" fill="#868686" p-id="15880"></path></svg>