<?xml version="1.0" standalone="no"?><!DOCTYPE svg PUBLIC "-//W3C//DTD SVG 1.1//EN" "http://www.w3.org/Graphics/SVG/1.1/DTD/svg11.dtd"><svg t="1584435450175" class="icon" viewBox="0 0 1024 1024" version="1.1" xmlns="http://www.w3.org/2000/svg" p-id="4865" xmlns:xlink="http://www.w3.org/1999/xlink" width="200" height="200"><defs><style type="text/css"></style></defs><path d="M1004.964807 919.478641L724.676306 639.117014a396.703658 396.703658 0 0 0 76.781353-236.340317A404.528043 404.528043 0 0 0 399.269619 0.003656 397.508034 397.508034 0 0 0 0.006583 399.851693a404.528043 404.528043 0 0 0 402.18804 402.773041 395.460531 395.460531 0 0 0 237.071568-77.585729l0.292501-0.219375 280.069126 280.142251a60.401331 60.401331 0 1 0 85.336989-85.48324zM401.902123 722.333376a323.651685 323.651685 0 0 1-321.750433-322.189182 318.094177 318.094177 0 0 1 319.410429-319.84918 323.578559 323.578559 0 0 1 321.750432 322.189183 318.094177 318.094177 0 0 1-319.410428 319.849179z" p-id="4866" fill="#2c2c2c"></path></svg>