<?xml version="1.0" standalone="no"?><!DOCTYPE svg PUBLIC "-//W3C//DTD SVG 1.1//EN" "http://www.w3.org/Graphics/SVG/1.1/DTD/svg11.dtd"><svg t="1582706070642" class="icon" viewBox="0 0 1024 1024" version="1.1" xmlns="http://www.w3.org/2000/svg" p-id="5207" xmlns:xlink="http://www.w3.org/1999/xlink" width="200" height="200"><defs><style type="text/css"></style></defs><path d="M744.8 128H279.2c-21.3 0-38.7 17.4-38.7 38.7v690.5c0 13.7 7 26.1 18.8 33.2 11.7 7.1 26 7.5 38.1 1L512 777.7l214.6 113.7c5.7 3 11.9 4.6 18.1 4.6 6.9 0 13.8-1.9 19.9-5.6 11.7-7.1 18.7-19.5 18.7-33.2V166.7c0.2-21.3-17.2-38.7-38.5-38.7z m-12 709.5L530.1 730c-11.3-6-24.9-6-36.2 0L291.2 837.5V178.6h441.7v658.9z" p-id="5208"></path></svg>