<?xml version="1.0" standalone="no"?><!DOCTYPE svg PUBLIC "-//W3C//DTD SVG 1.1//EN" "http://www.w3.org/Graphics/SVG/1.1/DTD/svg11.dtd"><svg t="1584435305390" class="icon" viewBox="0 0 1024 1024" version="1.1" xmlns="http://www.w3.org/2000/svg" p-id="4633" xmlns:xlink="http://www.w3.org/1999/xlink" width="200" height="200"><defs><style type="text/css"></style></defs><path d="M1013.088 208.255c-9.296-11.438-23.239-16.049-37.98-16.049H501.023c-27.006 0-48.881 16.004-48.881 43 0 26.995 21.875 43 48.881 43h424.532l-82.687 408H349.311l-23.017-161h345.243c26.984 0 48.881-21.504 48.881-48.5s-21.896-48.5-48.881-48.5H312.426L259.753 59.771c-3.494-24.047-24.089-39.564-48.388-39.564H48.888c-26.996 0-48.882 21.505-48.882 48.5s21.886 48.5 48.882 48.5h130.938l89.558 615.574c3.483 24.026 24.089 39.426 48.368 39.426h553.99c23.103 0 43.047-14.43 47.821-37.019l103.376-487.035c3.043-14.437-0.577-28.441-9.851-39.898zM305.497 832.714c-47.234 0-85.54 38.306-85.54 85.54s38.306 85.54 85.54 85.54c47.234 0 85.54-38.306 85.54-85.54s-38.306-85.54-85.54-85.54zM806.514 832.714c-47.234 0-85.539 38.306-85.539 85.54s38.305 85.54 85.539 85.54 85.54-38.306 85.54-85.54-38.306-85.54-85.54-85.54z" fill="#000000" p-id="4634"></path></svg>