<?xml version="1.0" standalone="no"?><!DOCTYPE svg PUBLIC "-//W3C//DTD SVG 1.1//EN" "http://www.w3.org/Graphics/SVG/1.1/DTD/svg11.dtd"><svg t="1584156373999" class="icon" viewBox="0 0 1024 1024" version="1.1" xmlns="http://www.w3.org/2000/svg" p-id="3524" xmlns:xlink="http://www.w3.org/1999/xlink" width="200" height="200"><defs><style type="text/css"></style></defs><path d="M465.5 896.2c0 21.7-17.6 39.3-39.2 39.3-21.7 0-39.2-17.6-39.2-39.3 0-21.6 17.6-39.2 39.2-39.2 21.8 0 39.2 17.6 39.2 39.2zM658 896.2c0 21.7 17.6 39.3 39.2 39.3 21.7 0 39.3-17.6 39.3-39.3 0-21.6-17.6-39.2-39.3-39.2-21.6 0-39.2 17.6-39.2 39.2zM493.1 198.3l78 105c2.7 3.7 7.2 3.7 10.1 0l78-105c2.7-3.7 1.1-6.8-3.8-6.8H623V96.1c0-4.3-3.8-7.7-8.3-7.7h-76.8c-4.6 0-8.3 3.4-8.3 7.7v95.4H497c-5 0.1-6.6 3.2-3.9 6.8z" p-id="3525" fill="#8a8a8a"></path><path d="M947 383.4L198 275.1c-9.6 0-10.8-8.2-14.1-18.5L151 140.9c-2.5-8.3-10.1-15.2-16.9-15.2H76.4c-6.8 0-12.4 7.4-12.4 16.3v20.7c0 9 5.6 16.3 12.4 16.3h20.4c6.8 0 14.4 6.8 16.9 15.2l190.7 651.4c2.5 8.3 10.1 15.2 16.9 15.2h62.1c10.2-12.4 25.5-20.4 42.9-20.4 17.3 0 32.6 8.1 42.9 20.4h185c10.2-12.4 25.5-20.4 42.9-20.4s32.6 8.1 42.9 20.4h87.3c6.8 0 12.4-7.4 12.4-16.3v-12.1c0-9-5.6-16.3-12.4-16.3H361c-6.8 0-14.4-6.8-16.9-15.2l-8.6-29.5c-3.2-10.9 1.2-16.2 8.1-16.2h444.6c10.9 0 19.5-10 25.2-20.7l142.5-266.3c3.6-6.4 4.2-13.8 4.2-26.5V401c0-17.6-13.1-17.6-13.1-17.6zM296 637.3l-12.7-42.2H296v42.2z m0-56h-16.9l-33-110H296v110z m0-123.7h-54.1L210 351.9c-2.5-8.6 1.1-15.6 8.1-15.6l77.8 11.2v110.1h0.1z m123.7 238.5h-93.5c-6.4 0-13.4-5.9-16.4-13.5v-87.5h110v101h-0.1z m0-114.8h-110v-110h110v110z m0-123.7h-110V349.5l110 15.9v92.2z m123.7 238.5h-110v-101h110v101z m0-114.8h-110v-110h110v110z m0-123.7h-110v-90.3l110 15.9v74.4z m123.7 238.5H557.2v-101h109.9v101z m0-114.8H557.2v-110h109.9v110z m0-123.7H557.2v-72.5L667.1 401v56.6z m123.8 213.8l-4.4 8.8c-4.6 8.8-13.1 15.9-22 15.9H681v-101h110v76.3h-0.1z m0-90.1h-110v-110h110v110z m0-123.7h-110v-54.5l110 15.9v38.6z m13.7 186.2v-48.7H829l-24.4 48.7z m31.1-62.5h-31.1v-110h86l-54.9 110z m65.8-131.9l-4 8.1h-92.9v-36.7l87.8 12.7c7 0 13.2 8 9.1 15.9z" p-id="3526" fill="#8a8a8a"></path></svg>