<?xml version="1.0" standalone="no"?><!DOCTYPE svg PUBLIC "-//W3C//DTD SVG 1.1//EN" "http://www.w3.org/Graphics/SVG/1.1/DTD/svg11.dtd"><svg t="1582526618964" class="icon" viewBox="0 0 1024 1024" version="1.1" xmlns="http://www.w3.org/2000/svg" p-id="8857" xmlns:xlink="http://www.w3.org/1999/xlink" width="200" height="200"><defs><style type="text/css"></style></defs><path d="M618.666667 657.450667l10.666666-6.144a234.666667 234.666667 0 1 0-234.666666 0l10.666666 6.144V768h213.333334v-110.549333z m-384-209.450667a277.333333 277.333333 0 1 1 426.666666 233.728V810.666667h-298.666666v-128.938667a277.12 277.12 0 0 1-128-233.728zM426.666667 938.666667h170.666666a42.666667 42.666667 0 0 1-42.666666 42.666666h-85.333334a42.666667 42.666667 0 0 1-42.666666-42.666666z m-42.666667-85.333334h256v42.666667H384v-42.666667z m149.333333-725.333333h-42.666666V0h42.666666v128zM291.328 175.829333l-30.165333 30.165334L170.666667 115.541333 200.832 85.333333l90.496 90.496z m464.213333 30.165334L725.333333 175.829333 815.829333 85.333333l30.165334 30.165334-90.453334 90.496z" p-id="8858" fill="#f4ea2a"></path></svg>