<?xml version="1.0" standalone="no"?><!DOCTYPE svg PUBLIC "-//W3C//DTD SVG 1.1//EN" "http://www.w3.org/Graphics/SVG/1.1/DTD/svg11.dtd"><svg t="1582380253296" class="icon" viewBox="0 0 1024 1024" version="1.1" xmlns="http://www.w3.org/2000/svg" p-id="4922" xmlns:xlink="http://www.w3.org/1999/xlink" width="200" height="200"><defs><style type="text/css"></style></defs><path d="M578.7 959.4c-30.4 0-58.9-11.8-80.2-33.2l-401-401.4c-21.2-21.1-32.9-49.6-32.9-79.8V215.5c0-83.4 67.8-151.2 151.2-151.2h229.6c29.9 0 59.1 12.2 80.1 33.4l400.9 400.8c44.2 44.2 44.2 116.2 0 160.4L760.5 822.1c-14.9 14.6-38.8 14.4-53.5-0.4-14.6-14.9-14.4-38.8 0.4-53.5l165.5-163c14.6-14.5 14.6-38.5-0.2-53.3l-401-401c-7-7.2-16.6-11.1-26.5-11.1H215.6c-41.7 0-75.6 33.9-75.6 75.6V445c0 10 3.9 19.4 11 26.5l26.7 27.2 374.1 374.1c14.2 14.2 39.3 14.2 53.4 0 14.8-14.8 38.7-14.8 53.5 0 14.8 14.7 14.8 38.7 0 53.5-21.2 21.3-49.7 33.1-80 33.1" fill="#bfbfbf" p-id="4923"></path><path d="M311.3 424.7c-29.1 0-58.1-11-80.2-33.1-21.4-21.4-33.2-49.9-33.2-80.2 0-30.3 11.8-58.8 33.2-80.2 44.2-44.2 116.2-44.2 160.4 0 21.4 21.4 33.2 49.9 33.2 80.2 0 30.3-11.8 58.8-33.2 80.2-22.1 22.1-51.2 33.1-80.2 33.1m0-151.1c-9.7 0-19.3 3.7-26.7 11-7.1 7.1-11.1 16.6-11.1 26.8 0 10.1 4 19.6 11.1 26.7 14.8 14.8 38.7 14.7 53.4 0 7.2-7.1 11.1-16.6 11.1-26.7 0-10.1-3.9-19.6-11.1-26.7-7.4-7.4-17-11.1-26.7-11.1" fill="#bfbfbf" p-id="4924"></path></svg>